<svg xmlns="http://www.w3.org/2000/svg" viewBox="0 0 32 32" fill="none" stroke="#0F766E" stroke-width="2.1" stroke-linecap="round" stroke-linejoin="round"><path d="M7.0 13.0 C7.0 7.5, 14.5 5.5, 19.5 8.0 C22.0 9.3, 24.5 7.2, 25.5 9.5 C26.5 11.8, 23.0 12.5, 23.5 10.0 C24.0 7.2, 26.5 5.5, 28.5 5.0"/><path d="M7.0 13.0 C6.5 20.0, 22.5 16.0, 22.0 23.0"/><path d="M22.0 23.0 C21.5 29.5, 8.0 30.0, 7.0 24.0"/><path d="M28.5 5.0 q0.8 -1.3 0.4 -2.8 M28.5 5.0 q1.6 -0.7 3.0 -1.1 M28.5 5.0 q1.3 0.2 2.1 1.2" stroke-width="1.5"/></svg>